<svg width="121" height="30" fill="none" xmlns="http://www.w3.org/2000/svg"><path d="M80.106 7.426c0 .534-.136.942-.407 1.226-.268.284-.656.426-1.164.426-.497 0-.92-.098-1.27-.293v-1.05c.428.278.82.417 1.176.417.203 0 .356-.056.457-.168.105-.112.157-.264.157-.457a.823.823 0 0 0-.184-.52c-.122-.158-.324-.334-.605-.527a2.789 2.789 0 0 1-.559-.484 1.842 1.842 0 0 1-.293-.523 2.025 2.025 0 0 1-.102-.672c0-.49.136-.878.407-1.164.273-.287.64-.43 1.097-.43.438 0 .858.122 1.262.367l-.351.852a3.264 3.264 0 0 0-.395-.196 1.11 1.11 0 0 0-.438-.085.486.486 0 0 0-.398.171c-.091.112-.137.266-.137.461 0 .193.055.361.164.504.112.143.306.306.583.489.372.25.631.505.777.765.148.26.223.557.223.89ZM83.383 9h-2.574V3.29h2.574v.917H81.87v1.36h1.402v.921h-1.402V8.07h1.512V9Zm1.894-2.223V9h-1.062V3.29h1.39c.589 0 1.023.138 1.301.417.281.279.422.704.422 1.277 0 .722-.243 1.226-.73 1.512L87.695 9H86.56l-.903-2.223h-.379Zm0-.914h.274c.25 0 .43-.07.539-.21.11-.144.164-.356.164-.637 0-.292-.059-.5-.176-.621-.115-.125-.293-.188-.535-.188h-.266v1.656Zm5.395-2.574h1.07L90.398 9h-1.351L87.71 3.29h1.07l.746 3.487c.068.297.135.723.2 1.278.054-.472.123-.897.207-1.278l.738-3.488ZM92.438 9V3.29h1V9h-1Zm4.101-4.863c-.305 0-.546.178-.723.535-.174.357-.261.853-.261 1.488 0 1.323.345 1.985 1.035 1.985.302 0 .618-.097.95-.29v.946c-.28.185-.636.277-1.071.277-.643 0-1.138-.255-1.485-.765-.343-.514-.515-1.234-.515-2.16 0-.928.177-1.65.531-2.169.357-.518.852-.777 1.484-.777.209 0 .408.029.598.086.193.057.399.158.617.3l-.351.864a2.946 2.946 0 0 0-.375-.219.941.941 0 0 0-.434-.101Zm.52 5.879c0 .278-.093.498-.278.66-.185.164-.471.246-.86.246-.19 0-.36-.027-.51-.082v-.602c.158.045.316.067.472.067.229 0 .344-.086.344-.258 0-.219-.205-.362-.614-.43L95.922 9h.676l-.145.297a.865.865 0 0 1 .434.246c.114.12.172.277.172.473Zm5.14-3.88c0 .946-.177 1.673-.531 2.18-.354.508-.861.762-1.52.762-.661 0-1.169-.252-1.523-.758-.354-.508-.531-1.238-.531-2.191 0-.945.177-1.67.531-2.172.354-.505.865-.758 1.531-.758.659 0 1.164.254 1.516.762.351.505.527 1.23.527 2.176Zm-3.02 0c0 .652.083 1.148.247 1.489.164.341.405.512.722.512.641 0 .961-.667.961-2 0-1.334-.317-2-.953-2-.323 0-.566.17-.73.511-.164.339-.246.835-.246 1.489Zm9.466-.046c0 .943-.193 1.664-.579 2.164-.382.497-.934.746-1.656.746h-1.398V3.29h1.527c.664 0 1.181.245 1.551.737.37.49.555 1.177.555 2.063Zm-1.09.031c0-1.276-.352-1.914-1.055-1.914h-.426V8.07h.344c.388 0 .674-.161.859-.484.185-.326.278-.814.278-1.465Zm4.5 2.879h-2.575V3.29h2.575v.917h-1.512v1.36h1.402v.921h-1.402V8.07h1.512V9Zm-34.36 9v-5.71h1V18h-1Zm6.207 0h-1.296l-1.766-4.137h-.05c.064.315.097.654.097 1.016V18h-.985v-5.71h1.305l1.75 4.093H83a5.562 5.562 0 0 1-.074-.977V12.29h.976V18Zm2.063 0H84.91v-5.71h2.559v.917h-1.504v1.586h1.402v.918h-1.402V18Zm6.148-2.863c0 .945-.177 1.672-.531 2.18-.354.507-.86.761-1.52.761-.661 0-1.169-.252-1.523-.758-.354-.508-.531-1.238-.531-2.191 0-.945.177-1.67.531-2.172.354-.505.865-.758 1.531-.758.66 0 1.164.254 1.516.762.352.505.527 1.23.527 2.176Zm-3.02 0c0 .65.083 1.147.247 1.488.164.341.405.512.722.512.641 0 .961-.667.961-2 0-1.334-.317-2-.953-2-.323 0-.566.17-.73.511-.164.339-.246.835-.246 1.489Zm4.919.64V18h-1.063v-5.71h1.39c.59 0 1.023.138 1.302.417.28.279.421.704.421 1.277 0 .722-.243 1.226-.73 1.512L96.43 18h-1.137l-.902-2.223h-.38Zm0-.914h.273c.25 0 .43-.07.54-.21.109-.144.163-.356.163-.637 0-.292-.058-.5-.175-.621-.115-.125-.294-.188-.536-.188h-.265v1.656ZM98.988 18l-1.086-4.863h-.043c.05.375.075.718.075 1.031V18h-.985v-5.71h1.633l.977 4.487h.03l.97-4.488h1.656V18h-1.008v-3.871c0-.32.018-.649.055-.984h-.032L100.148 18h-1.16Zm6.938 0-.328-1.441h-1.489L103.781 18h-1.062l1.414-5.734h1.441L106.992 18h-1.066Zm-.528-2.383-.304-1.328c-.018-.08-.06-.282-.125-.605a11.367 11.367 0 0 1-.114-.653c-.033.224-.076.472-.128.742-.053.269-.188.883-.407 1.844h1.078Zm3.993-2.48c-.305 0-.546.178-.723.535-.175.357-.262.853-.262 1.488 0 1.323.345 1.985 1.035 1.985.302 0 .619-.097.95-.29v.946c-.279.185-.636.277-1.071.277-.643 0-1.138-.255-1.484-.765-.344-.514-.516-1.234-.516-2.16 0-.928.177-1.65.532-2.169.356-.518.851-.777 1.484-.777.208 0 .407.029.598.086a2.4 2.4 0 0 1 .617.3l-.352.864a2.92 2.92 0 0 0-.375-.219.94.94 0 0 0-.433-.101Zm.519 5.879c0 .278-.092.498-.277.66-.185.164-.472.246-.86.246-.19 0-.36-.027-.511-.082v-.602c.159.045.316.067.472.067.23 0 .344-.086.344-.258 0-.219-.204-.362-.613-.43l.308-.617h.676l-.144.297a.863.863 0 0 1 .433.246c.115.12.172.277.172.473ZM113.902 18l-.328-1.441h-1.488L111.758 18h-1.063l1.414-5.734h1.442L114.969 18h-1.067Zm-.527-2.383-.305-1.328c-.018-.08-.06-.282-.125-.605-.062-.326-.1-.543-.113-.653-.034.224-.077.472-.129.742-.052.269-.187.883-.406 1.844h1.078Zm-1.004-4.203a.235.235 0 0 0-.195.094c-.047.06-.084.17-.11.332h-.55c.028-.399.117-.694.265-.887a.715.715 0 0 1 .59-.289c.112 0 .212.022.301.066.091.042.176.089.254.141.078.052.153.1.226.145a.453.453 0 0 0 .227.062c.088 0 .152-.034.191-.101.042-.068.077-.175.106-.32h.551c-.029.395-.12.69-.274.886a.707.707 0 0 1-.582.289.74.74 0 0 1-.309-.063 2.452 2.452 0 0 1-.25-.144 2.794 2.794 0 0 0-.218-.145.414.414 0 0 0-.223-.066Zm7.031 3.723c0 .945-.177 1.672-.531 2.18-.354.507-.861.761-1.519.761-.662 0-1.17-.252-1.524-.758-.354-.508-.531-1.238-.531-2.191 0-.945.177-1.67.531-2.172.354-.505.865-.758 1.531-.758.659 0 1.164.254 1.516.762.352.505.527 1.23.527 2.176Zm-3.019 0c0 .65.082 1.147.246 1.488.164.341.405.512.723.512.64 0 .96-.667.96-2 0-1.334-.317-2-.953-2-.323 0-.566.17-.73.511-.164.339-.246.835-.246 1.489ZM80.207 28l-.328-1.441H78.39L78.062 28H77l1.414-5.734h1.442L81.273 28h-1.066Zm-.527-2.383-.305-1.328c-.018-.08-.06-.283-.125-.605-.063-.326-.1-.543-.113-.653a18.83 18.83 0 0 1-.13.742c-.051.269-.187.883-.405 1.844h1.078Zm6.027-.48c0 .945-.177 1.672-.531 2.18-.354.507-.86.761-1.52.761-.661 0-1.169-.252-1.523-.758-.354-.508-.531-1.238-.531-2.191 0-.945.177-1.67.53-2.172.355-.505.865-.758 1.532-.758.659 0 1.164.254 1.516.762.351.505.527 1.23.527 2.176Zm-3.02 0c0 .65.082 1.147.247 1.488.164.341.404.512.722.512.64 0 .961-.667.961-2 0-1.334-.318-2-.953-2-.323 0-.566.17-.73.511-.165.339-.246.835-.246 1.489Zm7.727-2c-.305 0-.546.178-.723.535-.174.357-.261.853-.261 1.488 0 1.323.345 1.985 1.035 1.985.302 0 .618-.097.95-.29v.946c-.28.185-.636.277-1.071.277-.643 0-1.138-.255-1.485-.765-.343-.514-.515-1.234-.515-2.16 0-.928.177-1.65.531-2.169.357-.518.852-.777 1.484-.777.209 0 .408.029.598.086.193.057.399.158.617.3l-.351.864a2.948 2.948 0 0 0-.375-.219.941.941 0 0 0-.434-.101Zm2 4.863v-5.71h1V28h-1Zm5.84-2.91c0 .943-.193 1.664-.578 2.164-.383.497-.935.746-1.657.746h-1.398v-5.71h1.527c.665 0 1.181.245 1.551.737.37.49.555 1.177.555 2.063Zm-1.09.031c0-1.276-.352-1.914-1.055-1.914h-.425v3.863h.343c.388 0 .675-.161.86-.484.185-.326.277-.814.277-1.465ZM101.793 28l-.328-1.441h-1.488L99.648 28h-1.062L100 22.266h1.441L102.859 28h-1.066Zm-.527-2.383-.305-1.328c-.018-.08-.06-.283-.125-.605-.063-.326-.1-.543-.113-.653-.034.224-.077.472-.129.742-.052.269-.188.883-.406 1.844h1.078Zm5.73-.527c0 .943-.193 1.664-.578 2.164-.383.497-.935.746-1.656.746h-1.399v-5.71h1.528c.664 0 1.181.245 1.55.737.37.49.555 1.177.555 2.063Zm-1.09.031c0-1.276-.351-1.914-1.054-1.914h-.426v3.863h.344c.388 0 .674-.161.859-.484.185-.326.277-.814.277-1.465ZM110.535 28l-.328-1.441h-1.488L108.391 28h-1.063l1.414-5.734h1.442L111.602 28h-1.067Zm-.527-2.383-.305-1.328c-.018-.08-.06-.283-.125-.605-.062-.326-.1-.543-.113-.653-.034.224-.077.472-.129.742-.052.269-.188.883-.406 1.844h1.078Zm-1.004-4.203a.235.235 0 0 0-.195.094c-.047.06-.084.17-.11.332h-.551c.029-.399.118-.694.266-.887a.715.715 0 0 1 .59-.289c.112 0 .212.022.301.066.091.042.175.089.254.141.078.052.153.1.226.145a.453.453 0 0 0 .227.062c.088 0 .152-.034.191-.101.042-.068.077-.175.106-.32h.55c-.028.395-.119.69-.273.886a.707.707 0 0 1-.582.289.734.734 0 0 1-.309-.063 2.349 2.349 0 0 1-.25-.144 2.794 2.794 0 0 0-.218-.145.414.414 0 0 0-.223-.066Zm7.031 3.723c0 .945-.177 1.672-.531 2.18-.354.507-.861.761-1.52.761-.661 0-1.169-.252-1.523-.758-.354-.508-.531-1.238-.531-2.191 0-.945.177-1.67.531-2.172.354-.505.865-.758 1.531-.758.659 0 1.164.254 1.516.762.351.505.527 1.23.527 2.176Zm-3.019 0c0 .65.082 1.147.246 1.488.164.341.405.512.722.512.641 0 .961-.667.961-2 0-1.334-.317-2-.953-2-.323 0-.566.17-.73.511-.164.339-.246.835-.246 1.489Z" fill="#010101" fill-opacity=".7"/><path d="M1 9a2 2 0 0 1 2-2h14.308a2 2 0 0 1 2 2v11.077a2 2 0 0 1-2 2h-1.48a2 2 0 0 0-1.414.586l-2.307 2.307a2 2 0 0 1-2.829 0L6.97 22.663a2 2 0 0 0-1.414-.586H3a2 2 0 0 1-2-2V9Z" fill="#EB2227" stroke="#0071CE"/><path d="M18.769 17.23 5.846 7.539c-4.846 0-4.308-1.076-4.308 5.385 3.231 2.154 9.154 6.462 12.923 9.154 4.847 0 4.308-1.077 4.308-4.846Z" fill="#fff"/><path d="m10.154 12.385.604 1.86h1.956l-1.582 1.15.604 1.86-1.582-1.15-1.583 1.15.605-1.86-1.583-1.15H9.55l.605-1.86Z" fill="#0071CE"/><path d="M29.844 10.289c-.934-.86-2.292-1.312-3.498-1.312-1.99 0-4.13.98-4.13 3.347 0 1.93 1.371 2.624 2.728 3.06 1.402.453 2.216.71 2.216 1.524 0 .86-.693 1.16-1.477 1.16-.844 0-1.794-.482-2.307-1.13l-1.688 1.719c.934.98 2.472 1.537 3.995 1.537 2.11 0 4.086-1.1 4.086-3.558 0-2.126-1.87-2.744-3.317-3.211-1.01-.317-1.644-.543-1.644-1.252 0-.844.83-1.07 1.493-1.07.664 0 1.463.362 1.9.92l1.643-1.734ZM34.063 19.923V9.25H31.47v10.674h2.593ZM45.663 18.445l-1.794-1.688c-.453.633-1.252 1.085-2.262 1.085-1.78 0-3.03-1.326-3.03-3.271 0-1.885 1.281-3.272 3.075-3.272.814 0 1.674.317 2.156.98l1.75-1.749c-.89-1.025-2.504-1.568-3.996-1.568-3.257 0-5.79 2.186-5.79 5.609 0 3.347 2.458 5.638 5.745 5.638 1.794 0 3.21-.678 4.146-1.764ZM59.384 12.535c0-2.442-1.84-3.286-4.176-3.286h-3.92v10.674h2.578v-4.025h1.281c2.232 0 4.237-.89 4.237-3.363Zm-2.578.015c0 1.01-.89 1.297-1.855 1.297h-1.085V11.33h1.13c.92 0 1.81.196 1.81 1.221ZM71 19.923 66.567 9.25h-2.502l-4.478 10.674h2.804l.784-2.096h4.131l.83 2.096H71Zm-4.403-4.161h-2.683l1.357-3.664 1.326 3.664Z" fill="#0A67B2"/><path fill="#EB2227" d="M47.308 17.769h2.154v2.154h-2.154z"/></svg>